<svg xmlns="http://www.w3.org/2000/svg"
  width="40"
  height="40"
  viewBox="0 0 40 40">
  <path fill="#000"
    fill-rule="nonzero"
    d="M28.318 25.365a11.417 11.417 0 0 1-1.129 2.03c-.594.847-1.08 1.433-1.454 1.758-.581.534-1.203.808-1.87.823-.478 0-1.055-.136-1.726-.412-.674-.275-1.293-.411-1.86-.411-.593 0-1.23.136-1.91.411-.683.276-1.232.42-1.652.434-.64.027-1.276-.254-1.912-.845-.405-.354-.913-.96-1.52-1.82-.653-.918-1.19-1.982-1.61-3.195-.45-1.31-.675-2.58-.675-3.808 0-1.408.304-2.621.913-3.639a5.357 5.357 0 0 1 1.913-1.934 5.145 5.145 0 0 1 2.586-.73c.507 0 1.173.157 2 .466.824.309 1.354.466 1.586.466.174 0 .762-.184 1.759-.55.943-.339 1.739-.48 2.39-.424 1.768.143 3.095.84 3.978 2.094-1.58.957-2.362 2.298-2.346 4.019.014 1.34.5 2.454 1.455 3.34.433.41.917.728 1.455.954-.117.338-.24.662-.371.973zM24.266 9.42c0 1.05-.384 2.031-1.149 2.939-.923 1.079-2.039 1.702-3.25 1.604a3.27 3.27 0 0 1-.024-.398c0-1.008.44-2.087 1.219-2.97a4.69 4.69 0 0 1 1.484-1.114c.599-.292 1.165-.453 1.698-.481.015.14.022.28.022.42z"/>
</svg>
