<?xml version="1.0" encoding="UTF-8"?>
<svg width="40px"
  height="40px"
  viewBox="0 0 40 40"
  version="1.1"
  xmlns="http://www.w3.org/2000/svg"
  xmlns:xlink="http://www.w3.org/1999/xlink">
  <!-- Generator: sketchtool 52.6 (67491) - http://www.bohemiancoding.com/sketch -->
  <title>FAE2EC1E-1A4F-4BFF-A7ED-C253AEFFA5A8</title>
  <desc>Created with sketchtool.</desc>
  <defs>
    <path d="M10.5984,2.7048 C10.5984,6.06586667 9.39381333,8.89701333 7.30602667,10.8192 L3.73888,10.8192 L3.73888,8.04816 C4.90789333,7.26554667 5.6856,6.09653333 5.94197333,4.71653333 L0,4.71653333 L0,0.446506667 L10.3972267,0.446506667 C10.52848,1.16901333 10.5984,1.92096 10.5984,2.7048 Z"
      id="path-1"></path>
    <path d="M10.12,9.81333333 C5.80458667,9.81333333 2.07061333,7.33914667 0.25392,3.73152 L0.25392,0.870933333 L3.94250667,0.870933333 C4.81098667,3.48005333 7.24469333,5.42186667 10.12,5.42186667 C11.6054933,5.42186667 12.8701867,5.03056 13.85888,4.36816 L17.4260267,7.1392 C15.59952,8.82464 13.1008,9.81333333 10.12,9.81333333 Z"
      id="path-3"></path>
    <path d="M4.86250667,7.31093333 L1.17392,10.17152 C0.42688,8.68112 0,6.99445333 0,5.21333333 C0,3.43221333 0.42688,1.74554667 1.17392,0.255146667 L4.86250667,0.255146667 L4.86250667,3.11573333 C4.64170667,3.77813333 4.51658667,4.48592 4.51658667,5.21333333 C4.51658667,5.94074667 4.64170667,6.64853333 4.86250667,7.31093333 Z"
      id="path-5"></path>
    <path d="M10.12,4.39146667 C7.24469333,4.39146667 4.81098667,6.33328 3.94250667,8.9424 L0.25392,6.08181333 C2.07061333,2.47418667 5.80458667,0 10.12,0 C13.0958933,0 15.5946133,1.09418667 17.5069867,2.87530667 L14.3397333,6.04133333 C13.19648,4.94837333 11.7404267,4.39146667 10.12,4.39146667 Z"
      id="path-7"></path>
    <path d="M1.3979,0 L26.6021,0 C27.3756,0 28,0.6258 28,1.3979 L28,26.6021 C28,27.3756 27.3742,28 26.6021,28 L1.3979,28 C0.6244,28 0,27.3742 0,26.6021 L0,1.3979 C0,0.6244 0.6258,0 1.3979,0 Z"
      id="path-9"></path>
    <path d="M7.776,1.9845 C7.776,4.4505 6.8922,6.5277 5.3604,7.938 L2.7432,7.938 L2.7432,5.9049 C3.6009,5.3307 4.1715,4.473 4.3596,3.4605 L0,3.4605 L0,0.3276 L7.6284,0.3276 C7.7247,0.8577 7.776,1.4094 7.776,1.9845 Z"
      id="path-11"></path>
    <path d="M8.1,7.2 C4.9338,7.2 2.1942,5.3847 0.8613,2.7378 L0.8613,0.639 L3.5676,0.639 C4.2048,2.5533 5.9904,3.978 8.1,3.978 C9.1899,3.978 10.1178,3.6909 10.8432,3.2049 L13.4604,5.238 C12.1203,6.4746 10.287,7.2 8.1,7.2 Z"
      id="path-13"></path>
    <path d="M3.5676,6.039 L0.8613,8.1378 C0.3132,7.0443 0,5.8068 0,4.5 C0,3.1932 0.3132,1.9557 0.8613,0.8622 L3.5676,0.8622 L3.5676,2.961 C3.4056,3.447 3.3138,3.9663 3.3138,4.5 C3.3138,5.0337 3.4056,5.553 3.5676,6.039 Z"
      id="path-15"></path>
    <path d="M8.1,3.222 C5.9904,3.222 4.2048,4.6467 3.5676,6.561 L0.8613,4.4622 C2.1942,1.8153 4.9338,0 8.1,0 C10.2834,0 12.1167,0.8028 13.5198,2.1096 L11.196,4.4325 C10.3572,3.6306 9.2889,3.222 8.1,3.222 Z"
      id="path-17"></path>
  </defs>
  <g id="Login-&amp;-Onboardng"
    stroke="none"
    stroke-width="1"
    fill="none"
    fill-rule="evenodd">
    <g id="login"
      transform="translate(-367.000000, -536.000000)">
      <g id="Group-5"
        transform="translate(188.000000, 136.000000)">
        <g id="SOCIAL-LOGINS"
          transform="translate(0.000000, 368.000000)">
          <g id="Group-9-Copy"
            transform="translate(179.000000, 32.000000)">
            <g id="btn_google_light_normal_ios">
              <g id="Group-14"
                transform="translate(9.000000, 9.000000)">
                <g id="Group-7"
                  transform="translate(11.040000, 8.586667)">
                  <mask id="mask-2"
                    fill="white">
                    <use xlink:href="#path-1"></use>
                  </mask>
                  <g id="Clip-6"></g>
                  <polygon id="Fill-5"
                    fill="#318AF5"
                    mask="url(#mask-2)"
                    points="-0.0245333333 10.9418667 10.7210667 10.9418667 10.7210667 0.343466667 -0.0245333333 0.343466667"></polygon>
                </g>
                <g id="Group-10"
                  transform="translate(0.920000, 12.266667)">
                  <mask id="mask-4"
                    fill="white">
                    <use xlink:href="#path-3"></use>
                  </mask>
                  <g id="Clip-9"></g>
                  <polygon id="Fill-8"
                    fill="#3DA751"
                    mask="url(#mask-4)"
                    points="0.233066667 9.91146667 17.4554667 9.91146667 17.4554667 0.785066667 0.233066667 0.785066667"></polygon>
                </g>
                <g id="Group-13"
                  transform="translate(0.000000, 5.826667)">
                  <mask id="mask-6"
                    fill="white">
                    <use xlink:href="#path-5"></use>
                  </mask>
                  <g id="Clip-12"></g>
                  <polygon id="Fill-11"
                    fill="#FDB900"
                    mask="url(#mask-6)"
                    points="-0.0245333333 10.3162667 4.98026667 10.3162667 4.98026667 0.159466667 -0.0245333333 0.159466667"></polygon>
                </g>
                <g id="Group-16"
                  transform="translate(0.920000, 0.000000)">
                  <mask id="mask-8"
                    fill="white">
                    <use xlink:href="#path-7"></use>
                  </mask>
                  <g id="Clip-15"></g>
                  <polygon id="Fill-14"
                    fill="#EA3E36"
                    mask="url(#mask-8)"
                    points="0.233066667 9.07733333 17.6026667 9.07733333 17.6026667 -0.0490666667 0.233066667 -0.0490666667"></polygon>
                </g>
              </g>
              <g transform="translate(6.000000, 6.000000)">
                <g id="Group-4">
                  <mask id="mask-10"
                    fill="white">
                    <use xlink:href="#path-9"></use>
                  </mask>
                  <g id="Clip-3"></g>
                  <polygon id="Fill-2"
                    fill="#FFFFFF"
                    mask="url(#mask-10)"
                    points="-0.048 27.936 27.952 27.936 27.952 -0.064 -0.048 -0.064"></polygon>
                </g>
                <g id="Group-6"
                  transform="translate(5.000000, 5.000000)">
                  <g id="Group-7"
                    transform="translate(9.000000, 7.200000)">
                    <mask id="mask-12"
                      fill="white">
                      <use xlink:href="#path-11"></use>
                    </mask>
                    <g id="Clip-6"></g>
                    <polygon id="Fill-5"
                      fill="#318AF5"
                      mask="url(#mask-12)"
                      points="-0.018 8.028 7.866 8.028 7.866 0.252 -0.018 0.252"></polygon>
                  </g>
                  <g id="Group-10"
                    transform="translate(0.900000, 9.900000)">
                    <mask id="mask-14"
                      fill="white">
                      <use xlink:href="#path-13"></use>
                    </mask>
                    <g id="Clip-9"></g>
                    <polygon id="Fill-8"
                      fill="#3DA751"
                      mask="url(#mask-14)"
                      points="0.846 7.272 13.482 7.272 13.482 0.576 0.846 0.576"></polygon>
                  </g>
                  <g id="Group-13"
                    transform="translate(0.900000, 4.500000)">
                    <mask id="mask-16"
                      fill="white">
                      <use xlink:href="#path-15"></use>
                    </mask>
                    <g id="Clip-12"></g>
                    <polygon id="Fill-11"
                      fill="#FDB900"
                      mask="url(#mask-16)"
                      points="-0.018 8.244 3.654 8.244 3.654 0.792 -0.018 0.792"></polygon>
                  </g>
                  <g id="Group-16"
                    transform="translate(0.900000, 0.900000)">
                    <mask id="mask-18"
                      fill="white">
                      <use xlink:href="#path-17"></use>
                    </mask>
                    <g id="Clip-15"></g>
                    <polygon id="Fill-14"
                      fill="#EA3E36"
                      mask="url(#mask-18)"
                      points="0.846 6.66 13.59 6.66 13.59 -0.036 0.846 -0.036"></polygon>
                  </g>
                </g>
              </g>
            </g>
          </g>
        </g>
      </g>
    </g>
  </g>
</svg>
