<svg xmlns="http://www.w3.org/2000/svg"
  width="168"
  height="5"
  viewBox="0 0 168 5">
  <path fill="#FFDF00"
    fill-rule="evenodd"
    d="M164.369 3.26c.77.024 2.175.016 2.05.225-.136.23-1.544.21-2.47.2-4.989-.054-9.972-.134-14.96-.192-15.062-.174-30.13-.165-45.209-.095-19.876.092-39.622.511-59.407.84-10.454.174-20.874.45-31.395.444-2.863-.002-5.668-.08-8.419-.232C-.09 4.193-.519 3.945.383 3.103c.48-.449 2.057-.924 4.39-1.205 1.28-.154 2.416-.26 3.42.086.853.293 2.38.312 3.951.395 5.644.296 11.392.073 16.605-.136 6.654-.267 13.41-.445 20.068-.65 7.803-.238 15.744-.397 23.667-.53 9.826-.166 19.69-.14 29.508-.334 2.902-.057 6.17-.12 9.045.19.075.007.23.007.287-.003 2.85-.497 6.329.327 9.209-.168.303-.052 1.067-.075 1.384-.037 4.032.487 8.664.108 12.878.355 1.516.088 3.287.14 4.81-.088.274-.042.844-.068 1.116-.04 3.676.38 8.059.048 11.7.454.24.027.637.048.85.027 3.682-.352 6.519.525 10.276.263 1.207-.083 3.591.78 2.646 1.042-.98.27-.521.298.595.37.651.041 1.45.088 1.145.27-.332.197-1.175.146-1.977.127-2.82-.068-5.647-.125-8.473-.181-.56-.011-1.203-.036-1.676.164 3.004.075 5.796-.302 8.562-.214z"/>
</svg>
