<svg xmlns="http://www.w3.org/2000/svg"
  xmlns:xlink="http://www.w3.org/1999/xlink"
  width="343"
  height="145"
  viewBox="0 0 343 145">
  <defs>
    <path id="prefix__a"
      d="M0 0H343V177H0z"/>
  </defs>
  <g fill="none"
    fill-rule="evenodd"
    transform="translate(0 -12)">
    <mask id="prefix__b"
      fill="#fff">
      <use xlink:href="#prefix__a"/>
    </mask>
    <g mask="url(#prefix__b)">
      <g>
        <path fill="#FFF"
          fill-rule="nonzero"
          d="M545.733.5v1c-2.732 0-5.517 1.2-8.493 3.579-3.006 2.401-6.138 5.913-10.025 11.066l-.931 1.25c-2.72 3.709-9.62 13.461-10.748 15.011l-.978 1.337c-6.625 8.998-12.084 15.241-18.047 20.145-7.83 6.44-15.908 9.837-24.69 9.837-14.872 0-22.723-2.068-35.718-8.081l-3.11-1.453c-11.374-5.264-18.877-7.531-30.625-8.04l.006-.03c-.454 2.728-2.825 4.807-5.683 4.807-2.766 0-5.077-1.949-5.633-4.548l-.043-.226.013.076c-9.654.734-14.652 3.662-20.74 10.188l-1.613 1.753c-.435.472-.798.863-1.148 1.231l-.208.22c-9.214 9.662-20.155 13.894-44.66 13.894-11.085 0-21.143 3.175-31.1 9.377-7.975 4.966-15.39 11.399-25.499 21.611l-4.916 5.033-6.274 6.47-1.32 1.351c-13.277 13.556-22.313 21.463-33.117 28.12-14.08 8.673-28.996 13.232-46.069 13.32l-.87.001c-48.888-.182-82.831 26.954-101.895 81.505l-.573 1.662-.946-.322c18.893-55.487 52.89-83.468 101.927-83.842l1.49-.003c17.244.064 32.246-4.447 46.411-13.173 10.543-6.495 19.41-14.21 32.284-27.31l3.584-3.682c2.47-2.549 7.07-7.292 8.846-9.096l1.336-1.35c9.851-9.91 17.178-16.228 25.072-21.144 9.898-6.165 19.92-9.392 30.925-9.523l2.256-.011c12.547-.11 21.805-1.57 28.746-4.254 5.507-2.13 9.217-4.768 13.236-8.906l.818-.858 2.242-2.429c6.274-6.805 11.42-9.944 21.153-10.786l.526-.043v-.063c0-3.106 2.46-5.637 5.538-5.753l.221-.005c3.108 0 5.64 2.46 5.757 5.537l.004.22v-.016c12.111.529 19.79 2.913 31.656 8.452l2.409 1.127c12.876 5.96 20.596 7.992 35.304 7.992 8.529 0 16.392-3.306 24.055-9.61 6.03-4.958 11.562-11.333 18.364-20.628l2.023-2.814c2.742-3.847 8.028-11.292 9.76-13.607l.786-1.042c3.754-4.934 6.824-8.344 9.806-10.726 3.019-2.412 5.9-3.697 8.773-3.792l.345-.006zM396.691 40.413c-2.629 0-4.76 2.13-4.76 4.758 0 2.627 2.131 4.757 4.76 4.757 2.63 0 4.76-2.13 4.76-4.757 0-2.628-2.13-4.758-4.76-4.758zm0 2.13c1.453 0 2.63 1.178 2.63 2.63 0 1.453-1.177 2.63-2.63 2.63-1.452 0-2.63-1.177-2.63-2.63 0-1.452 1.178-2.63 2.63-2.63zm27.962-24.032c2.899 0 4.657 1.884 4.657 4.144v.249h-2.385c0-1.2-.78-2.312-2.254-2.312-1.484 0-2.453 1.104-2.453 3.348v1.318c0 2.252.96 3.306 2.47 3.306 1.475 0 2.238-1.002 2.238-2.21h2.384v.257c0 2.123-1.69 4.033-4.665 4.033-3.113 0-4.948-1.978-4.948-5.394v-1.319c0-3.416 1.852-5.42 4.956-5.42zm-30.948.223v7.38c0 1.576.934 2.432 2.315 2.432 1.372 0 2.306-.864 2.306-2.432v-7.38h2.478v7.723c0 2.492-1.809 4.187-4.785 4.187-2.984 0-4.784-1.695-4.784-4.187v-7.723h2.47zm13.912-.24c2.616 0 4.373 1.438 4.4 3.502H409.7c-.06-.822-.737-1.584-2.092-1.584-1.201 0-1.947.565-1.947 1.464 0 .677.549 1.13 1.595 1.345l1.775.393c1.715.368 3.164 1.198 3.165 3.322 0 2.295-1.793 3.708-4.69 3.708-3.448 0-4.563-1.926-4.598-3.579h2.385c.068.865.848 1.636 2.332 1.636 1.38 0 2.118-.617 2.118-1.525 0-.796-.6-1.181-1.784-1.447l-1.758-.402c-1.646-.352-3.018-1.276-3.018-3.262 0-2.295 1.955-3.571 4.433-3.571zm-37.45-.002l.158.009c1.284.117 2.254.645 2.913 1.584-1.168.725-1.741 1.738-1.72 3.04.011 1.003.367 1.846 1.067 2.527.318.31.673.551 1.066.721-.042.128-.085.253-.127.376-.043.123-.09.243-.143.36-.113.28-.243.552-.39.816-.137.245-.283.485-.438.72-.186.272-.38.54-.581.8-.175.224-.337.4-.485.528-.425.395-.881.603-1.37.624-.328 0-.753-.107-1.273-.32-.468-.203-.918-.304-1.353-.304-.467 0-.935.102-1.401.303-.499.214-.902.326-1.21.337-.478.022-.944-.192-1.4-.64-.318-.288-.69-.747-1.115-1.376-.477-.693-.87-1.498-1.178-2.416-.329-.96-.493-1.92-.493-2.88 0-1.067.223-1.984.669-2.752.35-.619.817-1.107 1.4-1.464.584-.358 1.215-.542 1.894-.552.404 0 .892.117 1.465.352.574.235.96.352 1.162.352.096 0 .526-.139 1.29-.416.71-.257 1.294-.362 1.75-.32zm9.585.242l3.232 7.244h.078l3.232-7.244h2.521V30.42h-2.238v-7.57h-.103l-2.693 6.011h-1.551l-2.702-6.01h-.102v7.57h-2.213V18.733h2.539zm37.408 0V30.42h-2.486V18.734h2.486zm-46.82-4.09c.011.054.017.107.017.16v.16c0 .8-.282 1.547-.844 2.24-.69.833-1.475 1.206-2.356 1.121-.01-.054-.016-.104-.016-.153v-.151c0-.768.287-1.488.86-2.16.286-.341.65-.624 1.09-.849.44-.223.857-.346 1.25-.368z"
          transform="translate(-171 -2)"/>
        <path fill="#00FF57"
          fill-rule="nonzero"
          d="M245.065 70.39c2.96 0 5.398 2.231 5.723 5.102l.02.217.07.013c5.134 1.06 9.639 4.175 13.84 9.246l.465.57c3.782 4.702 7.006 10.405 11.752 20.188l3.742 7.795c6.149 12.766 10.28 19.931 15.586 25.96 6.775 7.695 14.44 11.682 23.837 11.682 9.426 0 17.117-2.976 23.97-8.723l.62-.527c4.811-4.161 8.666-9.006 14.554-17.686l3.713-5.514c5.553-8.191 9.015-12.561 13.378-16.372 5.857-5.117 12.254-7.75 19.931-7.75 7.372 0 13.386 2.139 18.796 6.28 3.91 2.995 6.608 5.987 11.915 12.773l1.855 2.374c6.383 8.117 9.782 11.566 14.982 14.49 7.104 3.994 15.598 4.787 26.696 1.87l.597-.16c11.028-3.006 19.261-3.557 25.902-2.02 4.963 1.147 8.536 3.12 13.617 7.086l1.968 1.568c.707.569 1.56 1.257 1.894 1.522 9.432 7.514 16.973 10.69 30.602 10.786l.643.003v1c-14.066 0-21.882-3.145-31.42-10.652l-3.34-2.679c-5.504-4.397-9.093-6.482-14.19-7.66-6.33-1.464-14.204-.976-24.75 1.832l-.663.179c-11.633 3.17-20.574 2.398-28.046-1.804l-.598-.342c-5.114-2.993-8.59-6.625-15.04-14.858l-2.163-2.768c-4.82-6.124-7.412-8.945-11.07-11.745-5.238-4.012-11.04-6.074-18.187-6.074-7.423 0-13.59 2.538-19.273 7.502l-.542.48c-3.855 3.472-7.096 7.546-11.978 14.689l-1.966 2.907-1.67 2.486c-6.634 9.853-10.716 15.014-16.125 19.55-7.027 5.894-14.944 8.957-24.612 8.957-9.707 0-17.635-4.124-24.587-12.021l-.573-.66c-5.018-5.87-9.047-12.876-14.834-24.844l-3.483-7.26-.871-1.8c-4.749-9.75-7.96-15.331-11.805-19.972-4.03-4.866-8.305-7.843-13.152-8.879l-.007.077c-.325 2.87-2.764 5.101-5.723 5.101-2.799 0-5.132-1.995-5.652-4.64l.007.032c-2.31.701-4.301 1.774-6.065 3.212-2.602 2.121-4.421 4.586-7.231 9.376l-1.829 3.141-.286.484c-4.45 7.493-8.349 11.67-14.9 14.551-8.373 3.683-20.175 4.22-36.896 1.112-42.035-7.813-98.3 35.316-168.675 129.476l-2.137 2.87-.802-.597c71.59-96.447 128.815-140.721 171.797-132.732 16.54 3.074 28.147 2.546 36.311-1.044 6.185-2.72 9.923-6.641 14.16-13.673l.423-.711 1.703-2.924c3.021-5.19 4.926-7.818 7.73-10.105 1.912-1.557 4.075-2.709 6.584-3.445l-.002-.123v-.017c0-3.106 2.46-5.637 5.54-5.753l.22-.004zm0 1c-2.629 0-4.76 2.13-4.76 4.758 0 2.627 2.131 4.757 4.76 4.757 2.63 0 4.76-2.13 4.76-4.757s-2.13-4.757-4.76-4.757zm0 2.13c1.453 0 2.63 1.178 2.63 2.631 0 1.453-1.177 2.63-2.63 2.63-1.452 0-2.63-1.177-2.63-2.63 0-1.453 1.178-2.63 2.63-2.63zm-21.36-28.982c5.489 0 9.938 4.477 9.938 10 0 5.522-4.45 10-9.939 10s-9.939-4.478-9.939-10c0-5.524 4.45-10 9.94-10zm46.397 5.011c.583 0 .973.094 1.277.185.048.014.08.058.08.108v1.303c0 .036-.017.07-.047.092-.029.021-.066.027-.101.016-.288-.097-.546-.161-.866-.161-.537 0-.777.28-.777.909v.214h2.625c.047 0 .089.029.105.073L274.193 57l1.639-4.71c.015-.045.058-.075.106-.075h1.6c.037 0 .071.018.092.049.021.03.025.07.012.105l-2.666 6.93c-.552 1.431-1.18 1.963-2.314 1.963-.607 0-1.098-.126-1.641-.423-.052-.028-.073-.092-.049-.146l.521-1.15c.013-.028.037-.05.067-.06.03-.01.062-.007.09.008.29.16.576.242.846.242.335 0 .58-.111.83-.668l-2.198-5.302h-1.434v5.303c0 .062-.05.113-.113.113h-1.536c-.062 0-.113-.05-.113-.113v-5.303h-.738c-.062 0-.112-.051-.112-.113v-1.336c0-.062.05-.113.112-.113h.738v-.327c0-1.52.75-2.325 2.17-2.325zm-21.834 2.517c1.608 0 3.237 1.246 3.234 3.627 0 2.381-1.628 3.627-3.236 3.627-.865 0-1.575-.323-2.16-.985v2.775c0 .062-.05.113-.113.113h-1.536c-.062 0-.113-.05-.113-.113v-8.79c0-.062.05-.112.113-.112h1.536c.062 0 .113.05.113.113v.79c.585-.702 1.295-1.045 2.16-1.045zm7.406 0c2.064 0 3.68 1.594 3.68 3.627 0 2.041-1.627 3.64-3.705 3.64-2.057 0-3.668-1.588-3.668-3.614 0-2.048 1.623-3.653 3.693-3.653zm-15.53-2.184c1.26 0 2.34.376 3.296 1.148.047.038.056.105.022.154l-.838 1.189c-.018.025-.044.041-.074.046-.03.005-.06-.003-.085-.021-.805-.604-1.572-.897-2.346-.897-.798 0-1.335.386-1.335.96 0 .607.306.896 2.022 1.308 2.093.513 2.947 1.307 2.943 2.741 0 1.7-1.29 2.797-3.287 2.797-1.411 0-2.719-.505-3.782-1.46-.046-.04-.05-.11-.011-.157l.939-1.125c.02-.023.047-.037.077-.04.029-.001.06.008.083.027.914.797 1.73 1.136 2.732 1.136.902 0 1.463-.392 1.463-1.024 0-.57-.277-.889-1.92-1.27-1.929-.468-3.045-1.076-3.045-2.793 0-1.6 1.294-2.72 3.147-2.72zm21.83.473c.062 0 .112.05.112.113v1.74h1.693c.062 0 .112.051.11.114v1.328c0 .063-.05.113-.112.113h-1.691v3.195c0 .505.22.73.713.73.32 0 .606-.069.902-.219.034-.017.076-.016.11.006.033.02.053.057.053.096v1.265c0 .04-.022.079-.057.098-.43.246-.888.36-1.44.36-1.355 0-2.042-.704-2.042-2.093v-3.438h-.739c-.062 0-.112-.051-.112-.113v-1.33c0-.062.05-.112.112-.112h.739v-1.74c0-.062.05-.113.113-.113zm-33.917 7.748c-2.62-1.61-5.867-1.986-9.653-1.115-.335.077-.543.41-.466.746.076.336.408.546.741.47 3.46-.796 6.398-.472 8.731.963.292.18.674.088.852-.207.18-.294.087-.677-.205-.857zm38.196-5.895c.03 0 .058.012.08.033.02.021.032.05.032.08v6.745c0 .062-.05.113-.112.113h-1.537c-.062 0-.113-.05-.113-.113V52.32c0-.063.051-.113.113-.113zm-10.604 1.439c-1.105 0-1.906.86-1.906 2.046 0 1.18.83 2.07 1.931 2.07 1.113 0 1.92-.859 1.92-2.044 0-1.182-.836-2.072-1.945-2.072zm-7.739-.012c-1.05 0-1.843.884-1.843 2.058s.793 2.059 1.843 2.059c1.063 0 1.805-.846 1.805-2.059 0-1.193-.76-2.058-1.805-2.058zm-18.687 1.53c-3.068-1.896-7.555-2.43-11.164-1.328-.41.125-.64.56-.517.972.124.412.557.644.967.52 3.16-.965 7.233-.487 9.904 1.165.364.225.84.11 1.066-.257.224-.366.109-.846-.256-1.071zm49.737-2.97c.608 0 1.081.49 1.081 1.087s-.48 1.094-1.087 1.094c-.608 0-1.081-.491-1.081-1.088 0-.597.48-1.094 1.087-1.094zm0 .108c-.554 0-.973.443-.973.985s.416.98.967.98c.554 0 .974-.443.974-.986 0-.542-.417-.98-.967-.98zm.066.38c.264 0 .437.135.437.364.001.187-.107.301-.262.347h-.001l.306.43h-.258l-.276-.395h-.236v.396h-.216v-1.142h.506zm-48.494-.89c-3.688-2.202-9.524-2.41-13.035-1.337-.492.15-.769.672-.62 1.166.15.495.669.774 1.16.624 3.058-.934 8.342-.758 11.546 1.156.44.264 1.013.117 1.274-.327.262-.444.117-1.018-.325-1.282zm48.485 1.085h-.282v.362h.282c.14 0 .224-.07.224-.181 0-.118-.084-.18-.224-.18zm-13.523-3.742c.607 0 1.101.496 1.101 1.109 0 .612-.493 1.109-1.102 1.109-.609 0-1.103-.497-1.103-1.11 0-.612.494-1.108 1.103-1.108z"
          transform="translate(-171 -2)"/>
      </g>
    </g>
  </g>
</svg>
